<svg width="14" height="13" viewBox="0 0 14 13" fill="none" xmlns="http://www.w3.org/2000/svg">
<mask id="mask0_134_630" style="mask-type:luminance" maskUnits="userSpaceOnUse" x="0" y="7" width="11" height="6">
<path fill-rule="evenodd" clip-rule="evenodd" d="M0 7.97131H10.1225V12.7044H0V7.97131Z" fill="white"/>
</mask>
<g mask="url(#mask0_134_630)">
<path fill-rule="evenodd" clip-rule="evenodd" d="M5.06117 8.97133C3.2085 8.97133 0.999837 9.20933 0.999837 10.346C0.999837 11.2473 2.3665 11.7047 5.06117 11.7047C7.75584 11.7047 9.12251 11.2427 9.12251 10.3327C9.12251 9.42933 7.75584 8.97133 5.06117 8.97133ZM5.06133 12.7046C3.67733 12.7046 0 12.7046 0 10.346C0 7.97131 3.80933 7.97131 5.06133 7.97131C7.234 7.97131 10.1227 8.21598 10.1227 10.3326C10.1227 12.7046 6.31333 12.7046 5.06133 12.7046Z" fill="#4A1D1F"/>
</g>
<mask id="mask1_134_630" style="mask-type:luminance" maskUnits="userSpaceOnUse" x="10" y="7" width="4" height="4">
<path fill-rule="evenodd" clip-rule="evenodd" d="M10.5635 7.65564H13.3193V10.974H10.5635V7.65564Z" fill="white"/>
</mask>
<g mask="url(#mask1_134_630)">
<path fill-rule="evenodd" clip-rule="evenodd" d="M11.9303 10.974C11.7283 10.974 11.5383 10.8507 11.463 10.6513C11.365 10.3933 11.495 10.104 11.753 10.0067C12.3197 9.79199 12.3197 9.52999 12.3197 9.41799C12.3197 9.03999 11.8723 8.78133 10.9903 8.64999C10.717 8.60866 10.5283 8.35399 10.569 8.08133C10.6103 7.80799 10.8697 7.62466 11.1377 7.65999C12.9417 7.92999 13.3197 8.76533 13.3197 9.41799C13.3197 9.90399 13.1097 10.562 12.1077 10.9413C12.0497 10.9633 11.9897 10.974 11.9303 10.974Z" fill="#4A1D1F"/>
</g>
<path fill-rule="evenodd" clip-rule="evenodd" d="M9.65478 6.08793C9.40944 6.08793 9.19544 5.90726 9.16011 5.65726C9.12211 5.38393 9.31211 5.13059 9.58544 5.09259C10.4174 4.97593 11.0454 4.25393 11.0468 3.41259C11.0468 2.57659 10.4481 1.87126 9.62478 1.73659C9.35211 1.69126 9.16744 1.43459 9.21211 1.16193C9.25678 0.889259 9.51478 0.705925 9.78611 0.749259C11.0961 0.963925 12.0468 2.08459 12.0468 3.41326C12.0441 4.74993 11.0461 5.89793 9.72478 6.08326C9.70144 6.08659 9.67811 6.08793 9.65478 6.08793Z" fill="#4A1D1F"/>
<path fill-rule="evenodd" clip-rule="evenodd" d="M5.06088 1.00002C3.72421 1.00002 2.63688 2.08735 2.63688 3.42335C2.63688 4.75935 3.72421 5.84669 5.06088 5.84669H5.08155C5.72422 5.84402 6.32955 5.59135 6.78355 5.13335C7.23821 4.67669 7.48688 4.06935 7.48421 3.42535C7.48421 2.08735 6.39688 1.00002 5.06088 1.00002ZM5.06072 6.84667C3.17272 6.84667 1.63672 5.31067 1.63672 3.42333C1.63672 1.536 3.17272 0 5.06072 0C6.94805 0 8.48405 1.536 8.48405 3.42333C8.48805 4.33267 8.13539 5.19133 7.49272 5.838C6.85139 6.48533 5.99472 6.84333 5.08339 6.84667H5.06072Z" fill="#4A1D1F"/>
</svg>
