<svg width="1440" height="280" viewBox="0 0 1440 280" fill="none" xmlns="http://www.w3.org/2000/svg">
<path d="M878 -131C915.275 -131 947.737 -97.6011 964.625 -48.2559C981.803 -74.6154 1005.86 -91 1032.5 -91C1064.11 -91 1092.1 -67.9174 1109.26 -32.4697C1128.91 -68.4453 1157.14 -91 1188.5 -91C1225.22 -91 1257.64 -60.0856 1277.03 -12.9121C1294.33 -59.6904 1325.91 -91 1362 -91C1416.68 -91 1461 -19.1417 1461 69.5C1461 158.142 1416.68 230 1362 230C1330.77 230 1302.91 206.55 1284.77 169.918C1267.15 229.245 1230.66 270 1188.5 270C1144.31 270 1106.34 225.221 1089.82 161.21C1073.92 179.271 1054.05 190 1032.5 190C1000.5 190 972.21 166.346 955.115 130.157C936.968 166.652 909.166 190 878 190C846.766 190 818.911 166.55 800.767 129.918C783.154 189.245 746.662 230 704.5 230C660.305 230 622.341 185.221 605.819 121.21C589.92 139.271 570.054 150 548.5 150C529.286 150 511.413 141.474 496.496 126.829C482.261 187.158 446.217 230 404 230C372.766 230 344.911 206.55 326.767 169.918C309.154 229.245 272.662 270 230.5 270C186.305 270 148.341 225.221 131.819 161.21C115.92 179.271 96.0535 190 74.5 190C22.3091 190 -20 127.096 -20 49.5C-20 -28.096 22.3091 -91 74.5 -91C106.115 -91 134.103 -67.9174 151.258 -32.4697C170.909 -68.4453 199.135 -91 230.5 -91C267.221 -91 299.64 -60.0856 319.032 -12.9121C336.332 -59.6904 367.909 -91 404 -91C427.076 -91 448.307 -78.1995 465.142 -56.7402C481.063 -100.937 512.42 -131 548.5 -131C580.115 -131 608.103 -107.917 625.258 -72.4697C644.909 -108.445 673.135 -131 704.5 -131C741.221 -131 773.64 -100.086 793.032 -52.9121C810.332 -99.6904 841.909 -131 878 -131Z" fill="white"/>
</svg>
